<?xml version="1.0" encoding="UTF-8"?><svg xmlns="http://www.w3.org/2000/svg" width="283.46" height="283.46" viewBox="0 0 283.46 283.46"><g id="a"/><g id="b"><g id="c"><g><rect width="283.46" height="283.46" style="fill:#e60012;"/><path d="M153.79,168.15h19.59c18.02,0,32.64-14.61,32.64-32.64v-62.01c0-18.02-14.61-32.64-32.64-32.64h-19.69c-.46,0-.83,.37-.83,.83v125.52c0,.52,.42,.93,.93,.93Zm24.25-70.15c7.11,0,12.87,5.76,12.87,12.87s-5.76,12.87-12.87,12.87-12.87-5.76-12.87-12.87,5.76-12.87,12.87-12.87Zm-38.85-57.14h-27.82c-18.02,0-32.64,14.61-32.64,32.64v62.01c0,18.02,14.61,32.64,32.64,32.64h27.82c.52,0,.93-.42,.93-.93V41.8c0-.52-.42-.93-.93-.93Zm-9.33,117.02h-18.49c-5.98,0-11.6-2.33-15.82-6.55-4.23-4.22-6.55-9.84-6.55-15.82v-62.01c0-5.98,2.33-11.6,6.55-15.82,4.23-4.23,9.85-6.55,15.82-6.55h18.49v106.76Zm-31.31-78.84c0,6.61,5.36,11.97,11.97,11.97s11.97-5.36,11.97-11.97-5.36-11.97-11.97-11.97-11.97,5.36-11.97,11.97Zm-46.73,113.76l7.89,10.63h3.14v-15.89h-3.23v10.44l-7.82-10.44h-3.21v15.89h3.22v-10.63Zm77.58-5.26h-13.46v3.37h5.08v12.52h3.42v-12.52h4.96v-3.37Zm-.98,54.01h6.67v-29.99h-6.67v29.99Zm-34.84-48.75l7.89,10.63h3.14v-15.89h-3.23v10.44l-7.82-10.44h-3.21v15.89h3.22v-10.63Zm15.07,40.52l-6.35-21.76h-5.32l-6.32,21.68-5.77-21.68h-6.53l8.49,29.99h7.21l5.59-19.76,5.55,19.76h7.24l8.53-29.99h-6.53l-5.79,21.76Zm-47.61-9.98c-4.33-.71-7.13-1.51-7.13-3.53,0-2.33,3.12-3.23,7.3-3.23,3.89,0,7.79,1.48,9.18,2.07l2.13-5.19c-1.51-.6-6.3-2.31-11.61-2.31-6.48,0-13.37,3.16-13.37,9.02,0,4.75,3.35,7.18,11.95,8.65,6.06,1.04,9.4,1.62,9.3,4.22-.05,1.43-1.16,3.84-7.99,3.84-5.49,0-9.37-1.99-10.71-2.8l-2.84,5.12c1.51,.8,6.59,3.18,13.12,3.18,9.54,0,14.58-3.31,14.58-9.56,0-3.62-1.22-7.4-13.9-9.48Zm17.33-35.8h-3.54v15.89h3.54v-15.89Zm102.45,15.89v-15.89h-3.23v10.44l-7.82-10.44h-3.21v15.89h3.22v-10.63l7.89,10.63h3.14Zm-27.43-2.94h-9.14v-3.73h8.45v-2.87h-8.45v-3.43h9.14v-2.92h-12.36v15.89h12.36v-2.94Zm84.59,37.45h1.37v3.61h.87v-3.61h1.34v-.85h-3.58v.85Zm-10.23-50.94c-4.67,0-8.47,3.81-8.47,8.48s3.8,8.48,8.47,8.48,8.47-3.8,8.47-8.48-3.8-8.48-8.47-8.48Zm0,13.43c-2.72,0-4.94-2.22-4.94-4.95s2.21-4.95,4.94-4.95,4.94,2.22,4.94,4.95-2.21,4.95-4.94,4.95Zm18.35,36.66l-1.12,3.26-1.12-3.26h-1.24v4.46h.8v-3.43l1.17,3.39v.04h.78v-.04l1.18-3.39v3.43h.8v-4.46h-1.24Zm-17.27-13.71h-14.01v-11.82h-6.2v29.99h6.2v-11.96h14.01v11.96h6.21v-29.99h-6.21v11.82Zm-86.43-5.46h9.58v23.63h6.45v-23.63h9.37v-6.36h-25.4v6.36Zm46.25-.68c3.39,0,6.54,1.81,8.23,4.66l4.88-4.24c-2.99-4.44-7.92-7.08-13.29-7.08-8.83,0-16.01,7.18-16.01,16.01s7.18,16.01,16.01,16.01c5.37,0,10.3-2.64,13.29-7.08l-4.88-4.24c-1.69,2.85-4.85,4.66-8.23,4.66-5.25,0-9.51-4.19-9.51-9.34s4.27-9.34,9.51-9.34Zm12.18-29.71h-6.57v15.89h6.57c4.51,0,8.17-3.56,8.17-7.95s-3.67-7.95-8.17-7.95Zm.16,12.55h-3.47v-9.21h3.47c2.54,0,4.61,2.07,4.61,4.61s-2.07,4.61-4.61,4.61Z" style="fill:#fff;"/></g></g></g></svg>